<svg width="20" height="21" viewBox="0 0 20 21" fill="none" xmlns="http://www.w3.org/2000/svg">
<path d="M2.5 7.41122V17.4112C2.5 17.6322 2.5878 17.8442 2.74408 18.0005C2.90036 18.1568 3.11232 18.2446 3.33333 18.2446H7.5C7.72101 18.2446 7.93297 18.1568 8.08925 18.0005C8.24554 17.8442 8.33333 17.6322 8.33333 17.4112V11.5779H11.6667V17.4112C11.6667 17.6322 11.7545 17.8442 11.9107 18.0005C12.067 18.1568 12.279 18.2446 12.5 18.2446H16.6667C16.8877 18.2446 17.0996 18.1568 17.2559 18.0005C17.4122 17.8442 17.5 17.6322 17.5 17.4112V7.41122C17.5 7.28184 17.4699 7.15425 17.412 7.03854C17.3542 6.92282 17.2702 6.82217 17.1667 6.74455L10.5 1.74455C10.3558 1.63636 10.1803 1.57788 10 1.57788C9.81969 1.57788 9.64425 1.63636 9.5 1.74455L2.83333 6.74455C2.72984 6.82217 2.64583 6.92282 2.58798 7.03854C2.53012 7.15425 2.5 7.28184 2.5 7.41122V7.41122ZM4.16667 7.82788L10 3.45288L15.8333 7.82788V16.5779H13.3333V10.7445C13.3333 10.5235 13.2455 10.3116 13.0893 10.1553C12.933 9.99901 12.721 9.91122 12.5 9.91122H7.5C7.27899 9.91122 7.06702 9.99901 6.91074 10.1553C6.75446 10.3116 6.66667 10.5235 6.66667 10.7445V16.5779H4.16667V7.82788Z" fill="#464255"/>
</svg>
