<svg width="16" height="18" viewBox="0 0 16 18" fill="none" xmlns="http://www.w3.org/2000/svg">
<path d="M0.5 6.41097V16.411C0.5 16.632 0.587797 16.8439 0.744078 17.0002C0.900358 17.1565 1.11232 17.2443 1.33333 17.2443H5.5C5.72101 17.2443 5.93297 17.1565 6.08925 17.0002C6.24554 16.8439 6.33333 16.632 6.33333 16.411V10.5776H9.66667V16.411C9.66667 16.632 9.75446 16.8439 9.91074 17.0002C10.067 17.1565 10.279 17.2443 10.5 17.2443H14.6667C14.8877 17.2443 15.0996 17.1565 15.2559 17.0002C15.4122 16.8439 15.5 16.632 15.5 16.411V6.41097C15.5 6.2816 15.4699 6.15401 15.412 6.03829C15.3542 5.92258 15.2702 5.82193 15.1667 5.7443L8.5 0.744303C8.35575 0.636118 8.18031 0.577637 8 0.577637C7.81969 0.577637 7.64425 0.636118 7.5 0.744303L0.833333 5.7443C0.729837 5.82193 0.645834 5.92258 0.587977 6.03829C0.530121 6.15401 0.5 6.2816 0.5 6.41097V6.41097ZM2.16667 6.82764L8 2.45264L13.8333 6.82764V15.5776H11.3333V9.74431C11.3333 9.52329 11.2455 9.31133 11.0893 9.15505C10.933 8.99877 10.721 8.91097 10.5 8.91097H5.5C5.27899 8.91097 5.06702 8.99877 4.91074 9.15505C4.75446 9.31133 4.66667 9.52329 4.66667 9.74431V15.5776H2.16667V6.82764Z" fill="#43B5CB"/>
</svg>
