<svg width="85" height="85" viewBox="0 0 85 85" fill="none" xmlns="http://www.w3.org/2000/svg">
<ellipse cx="42.1554" cy="42.5" rx="42.1554" ry="42.5" fill="#00B074" fill-opacity="0.15"/>
<path d="M50.1723 39.5096C49.4822 32.5014 43.5013 27 36.2552 27C30.2512 27 24.9375 30.8351 23.0282 36.405C18.4965 37.067 15 40.9249 15 45.6046C15 50.7409 19.2096 54.9183 24.4084 54.9183H48.4701C52.8176 54.9183 56.3602 51.4257 56.3602 47.1112C56.3602 43.3903 53.6918 40.2629 50.1723 39.5096ZM48.4701 51.4256H24.4084C21.1649 51.4256 18.5195 48.8233 18.5195 45.6045C18.5195 42.3858 21.1649 39.7835 24.4084 39.7835C25.9726 39.7835 27.4449 40.3997 28.5491 41.4956C30.2076 43.1414 32.7142 40.6524 31.0565 39.0073C29.8372 37.8202 28.342 36.9985 26.7318 36.5876C28.388 32.9352 32.1147 30.4926 36.2553 30.4926C42.0291 30.4926 46.7219 35.1495 46.7219 40.8563C46.7219 41.975 46.5378 43.0706 46.1927 44.1207C45.4497 46.3894 48.8624 47.3311 49.5282 45.2165C49.7582 44.5317 49.9423 43.824 50.0573 43.1164C51.6675 43.7327 52.8407 45.285 52.8407 47.1112C52.8407 49.4852 50.8854 51.4256 48.4701 51.4256ZM68 47.1112C68 50.7408 66.9418 54.2334 64.9175 57.2238C64.5725 57.7261 64.0204 58 63.4453 58C62.0896 58 61.1915 56.4479 61.9961 55.2835C63.6063 52.8637 64.4805 50.0331 64.4805 47.1112C64.4805 44.1893 63.6064 41.3586 61.9961 38.9617C60.6955 37.0794 63.6046 35.0669 64.9175 37.0214C66.9419 39.9889 68 43.4816 68 47.1112ZM62.1112 47.1112C62.1112 49.7136 61.3521 52.2246 59.8798 54.3933C59.5348 54.8955 58.9827 55.1465 58.4076 55.1465C56.9785 55.1465 56.1626 53.5818 56.9584 52.4301C58.0396 50.855 58.5917 49.0287 58.5917 47.1112C58.5917 45.2165 58.0396 43.3674 56.9584 41.7924C55.649 39.8972 58.5377 37.9095 59.8798 39.852C61.352 41.9977 62.1112 44.5088 62.1112 47.1112Z" fill="#3DB3C9"/>
</svg>
