<svg width="85" height="85" viewBox="0 0 85 85" fill="none" xmlns="http://www.w3.org/2000/svg">
<ellipse cx="42.1554" cy="42.5" rx="42.1554" ry="42.5" fill="#00B074" fill-opacity="0.15"/>
<path d="M62.24 38.6781C62.6308 37.6511 62.85 36.5281 62.85 35.3571C62.85 30.2701 58.7516 26.1429 53.7 26.1429C51.8223 26.1429 50.0686 26.7187 48.6198 27.6978C45.9797 23.0906 41.052 20 35.4 20C26.9744 20 20.15 26.8723 20.15 35.3571C20.15 35.6163 20.1595 35.8754 20.1691 36.1346C14.8316 38.0254 11 43.1509 11 49.1786C11 56.8092 17.1477 63 24.725 63H59.8C66.5386 63 72 57.5002 72 50.7143C72 44.773 67.8062 39.8107 62.24 38.6781Z" fill="#3DB3C9"/>
</svg>
