<svg width="153" height="30" viewBox="0 0 153 30" fill="none" xmlns="http://www.w3.org/2000/svg">
<path d="M20.168 18.632C20.168 19.208 20.132 19.808 20.06 20.432H6.128C6.224 21.68 6.62 22.64 7.316 23.312C8.036 23.96 8.912 24.284 9.944 24.284C11.48 24.284 12.548 23.636 13.148 22.34H19.7C19.364 23.66 18.752 24.848 17.864 25.904C17 26.96 15.908 27.788 14.588 28.388C13.268 28.988 11.792 29.288 10.16 29.288C8.192 29.288 6.44 28.868 4.904 28.028C3.368 27.188 2.168 25.988 1.304 24.428C0.44 22.868 0.00800003 21.044 0.00800003 18.956C0.00800003 16.868 0.428 15.044 1.268 13.484C2.132 11.924 3.332 10.724 4.868 9.884C6.404 9.044 8.168 8.624 10.16 8.624C12.104 8.624 13.832 9.032 15.344 9.848C16.856 10.664 18.032 11.828 18.872 13.34C19.736 14.852 20.168 16.616 20.168 18.632ZM13.868 17.012C13.868 15.956 13.508 15.116 12.788 14.492C12.068 13.868 11.168 13.556 10.088 13.556C9.056 13.556 8.18 13.856 7.46 14.456C6.764 15.056 6.332 15.908 6.164 17.012H13.868ZM22.1916 18.956C22.1916 16.868 22.6116 15.044 23.4516 13.484C24.3156 11.924 25.5036 10.724 27.0156 9.884C28.5516 9.044 30.3036 8.624 32.2716 8.624C34.7916 8.624 36.8916 9.284 38.5716 10.604C40.2756 11.924 41.3916 13.784 41.9196 16.184H35.3676C34.8156 14.648 33.7476 13.88 32.1636 13.88C31.0356 13.88 30.1356 14.324 29.4636 15.212C28.7916 16.076 28.4556 17.324 28.4556 18.956C28.4556 20.588 28.7916 21.848 29.4636 22.736C30.1356 23.6 31.0356 24.032 32.1636 24.032C33.7476 24.032 34.8156 23.264 35.3676 21.728H41.9196C41.3916 24.08 40.2756 25.928 38.5716 27.272C36.8676 28.616 34.7676 29.288 32.2716 29.288C30.3036 29.288 28.5516 28.868 27.0156 28.028C25.5036 27.188 24.3156 25.988 23.4516 24.428C22.6116 22.868 22.1916 21.044 22.1916 18.956ZM57.1645 29.252C54.7885 29.252 52.6045 28.7 50.6125 27.596C48.6445 26.492 47.0725 24.956 45.8965 22.988C44.7445 20.996 44.1685 18.764 44.1685 16.292C44.1685 13.82 44.7445 11.6 45.8965 9.632C47.0725 7.664 48.6445 6.128 50.6125 5.024C52.6045 3.92 54.7885 3.368 57.1645 3.368C59.5405 3.368 61.7125 3.92 63.6805 5.024C65.6725 6.128 67.2325 7.664 68.3605 9.632C69.5125 11.6 70.0885 13.82 70.0885 16.292C70.0885 18.764 69.5125 20.996 68.3605 22.988C67.2085 24.956 65.6485 26.492 63.6805 27.596C61.7125 28.7 59.5405 29.252 57.1645 29.252ZM57.1645 23.636C59.1805 23.636 60.7885 22.964 61.9885 21.62C63.2125 20.276 63.8245 18.5 63.8245 16.292C63.8245 14.06 63.2125 12.284 61.9885 10.964C60.7885 9.62 59.1805 8.948 57.1645 8.948C55.1245 8.948 53.4925 9.608 52.2685 10.928C51.0685 12.248 50.4685 14.036 50.4685 16.292C50.4685 18.524 51.0685 20.312 52.2685 21.656C53.4925 22.976 55.1245 23.636 57.1645 23.636ZM72.2893 18.92C72.2893 16.856 72.6733 15.044 73.4413 13.484C74.2333 11.924 75.3013 10.724 76.6453 9.884C77.9893 9.044 79.4893 8.624 81.1453 8.624C82.5613 8.624 83.7973 8.912 84.8533 9.488C85.9333 10.064 86.7613 10.82 87.3373 11.756V8.912H93.4933V29H87.3373V26.156C86.7373 27.092 85.8973 27.848 84.8173 28.424C83.7613 29 82.5253 29.288 81.1093 29.288C79.4773 29.288 77.9893 28.868 76.6453 28.028C75.3013 27.164 74.2333 25.952 73.4413 24.392C72.6733 22.808 72.2893 20.984 72.2893 18.92ZM87.3373 18.956C87.3373 17.42 86.9053 16.208 86.0413 15.32C85.2013 14.432 84.1693 13.988 82.9453 13.988C81.7213 13.988 80.6773 14.432 79.8133 15.32C78.9733 16.184 78.5533 17.384 78.5533 18.92C78.5533 20.456 78.9733 21.68 79.8133 22.592C80.6773 23.48 81.7213 23.924 82.9453 23.924C84.1693 23.924 85.2013 23.48 86.0413 22.592C86.9053 21.704 87.3373 20.492 87.3373 18.956ZM101.043 6.824C99.9628 6.824 99.0748 6.512 98.3788 5.888C97.7068 5.24 97.3708 4.448 97.3708 3.512C97.3708 2.552 97.7068 1.76 98.3788 1.136C99.0748 0.487998 99.9628 0.163998 101.043 0.163998C102.099 0.163998 102.963 0.487998 103.635 1.136C104.331 1.76 104.679 2.552 104.679 3.512C104.679 4.448 104.331 5.24 103.635 5.888C102.963 6.512 102.099 6.824 101.043 6.824ZM104.103 8.912V29H97.9468V8.912H104.103ZM114.72 12.26C115.44 11.156 116.34 10.292 117.42 9.668C118.5 9.02 119.7 8.696 121.02 8.696V15.212H119.328C117.792 15.212 116.64 15.548 115.872 16.22C115.104 16.868 114.72 18.02 114.72 19.676V29H108.564V8.912H114.72V12.26ZM142.898 18.632C142.898 19.208 142.862 19.808 142.79 20.432H128.858C128.954 21.68 129.35 22.64 130.046 23.312C130.766 23.96 131.642 24.284 132.674 24.284C134.21 24.284 135.278 23.636 135.878 22.34H142.43C142.094 23.66 141.482 24.848 140.594 25.904C139.73 26.96 138.638 27.788 137.318 28.388C135.998 28.988 134.522 29.288 132.89 29.288C130.922 29.288 129.17 28.868 127.634 28.028C126.098 27.188 124.898 25.988 124.034 24.428C123.17 22.868 122.738 21.044 122.738 18.956C122.738 16.868 123.158 15.044 123.998 13.484C124.862 11.924 126.062 10.724 127.598 9.884C129.134 9.044 130.898 8.624 132.89 8.624C134.834 8.624 136.562 9.032 138.074 9.848C139.586 10.664 140.762 11.828 141.602 13.34C142.466 14.852 142.898 16.616 142.898 18.632ZM136.598 17.012C136.598 15.956 136.238 15.116 135.518 14.492C134.798 13.868 133.898 13.556 132.818 13.556C131.786 13.556 130.91 13.856 130.19 14.456C129.494 15.056 129.062 15.908 128.894 17.012H136.598Z" fill="#333333"/>
<path d="M149.026 29.288C147.946 29.288 147.058 28.976 146.362 28.352C145.69 27.704 145.354 26.912 145.354 25.976C145.354 25.016 145.69 24.212 146.362 23.564C147.058 22.916 147.946 22.592 149.026 22.592C150.082 22.592 150.946 22.916 151.618 23.564C152.314 24.212 152.662 25.016 152.662 25.976C152.662 26.912 152.314 27.704 151.618 28.352C150.946 28.976 150.082 29.288 149.026 29.288Z" fill="#65C3D4"/>
</svg>
